<?xml version="1.0" encoding="utf-8"?>
<!-- Generator: Adobe Illustrator 21.0.0, SVG Export Plug-In . SVG Version: 6.00 Build 0)  -->
<svg version="1.1" id="sun" xmlns="http://www.w3.org/2000/svg" xmlns:xlink="http://www.w3.org/1999/xlink" x="0px" y="0px"
	 viewBox="0 0 1094 1106" style="enable-background:new 0 0 1094 1106;" xml:space="preserve">
<g id="sun-group">
	<path id="outer-circle" d="M549.6,956C328.4,956,149,776.7,149,555.5c0-221.4,179.5-400.6,401.1-400.5
		c220.8,0.1,400,179.8,399.9,400.8C949.9,776.7,770.6,956,549.6,956z M920.8,555.3c-0.2-205.1-166.6-371.2-371.6-371.2
		C344.4,184.2,178,350.9,178.2,555.9c0.1,205,166.9,371.1,372.4,370.9C754.7,926.6,921.1,759.7,920.8,555.3z"/>
	<path id="top" d="M487.3,146.5c22.9-32.8,44.2-66.2,58.4-104.1c19.1,36.7,37.7,73.2,66.3,103.8
		C570.4,142.3,529.1,140.9,487.3,146.5z"/>
	<path id="bottom" d="M553.2,1066.4c-19.1-36.8-38-73.2-66.3-103.8c41.7,4.2,82.9,5.4,124.7-0.1
		C588.8,995.2,567.5,1028.6,553.2,1066.4z"/>
	<path id="bottom-left" d="M207.8,793.6c25.8,30.5,52.5,59.6,85.3,83c-40.4,8.9-80.4,17.5-117.3,37.1
		C190.3,874.7,202.3,835.3,207.8,793.6z"/>
	<path id="bottom-right" d="M821.4,872.1c28.3-28.2,55.2-57.2,75.9-91.7c12.1,39.6,23.9,78.7,46.3,114
		C903.5,883.1,863.3,874.3,821.4,872.1z"/>
	<path id="top-right" d="M797.9,223c41.6-1.7,80.5-13.9,120-27.4c-6.6,19.6-13.7,38-19,57c-5.3,19.1-8.7,38.7-13.2,59.2
		C860.2,277.8,830.3,249.4,797.9,223z"/>
	<path id="top-left" d="M177.9,199.5c39.5,12.4,78.4,25,120.1,26.5c-32.2,26.5-62.3,54.8-87.9,88.1
		C203.1,274.7,194.4,236.2,177.9,199.5z"/>
	<path id="left" d="M139.5,617.9c-32.7-22.7-66-44.1-103.9-58.1c36.6-19.2,73.1-37.8,103.7-66.3
		C135.4,535.1,134.1,576.2,139.5,617.9z"/>
	<path id="right" d="M960.4,616.5c1.2-19.7,3.3-40.2,3.4-60.8c0.1-20.6-1.8-41.2-2.9-62.8c32.2,23.2,65.5,44.5,104.6,58.3
		c-19.6,10.6-38.1,19.5-55.4,30.3C992.9,592.3,976.8,604.9,960.4,616.5z"/>
	<path d="M893,555.6C892.9,745.2,739.1,899,549.5,899C359.7,899,205.7,744.8,206,555.1c0.3-189.7,154.3-343.4,343.7-343.1
		C739.5,212.3,893.1,366,893,555.6z"/>
</g>
</svg>
